<svg id="圖層_1" data-name="圖層 1" xmlns="http://www.w3.org/2000/svg" viewBox="0 0 280 60"><defs><style>.cls-1{font-size:36.75px;stroke:#954e09;stroke-miterlimit:10;stroke-width:0.75px;font-family:Thonburi, Thonburi;}.cls-1,.cls-2{fill:#954e09;}</style></defs><title>bread-logo</title><text class="cls-1" transform="translate(64.74 43.48)">MAI-Bakery</text><path class="cls-2" d="M35.73,36.62c-9.63-2.24-14.13-2.77-19.39-1.25a20.66,20.66,0,0,0,38.93,1.09C50.7,38,44.18,38.6,35.73,36.62Z"/><path class="cls-2" d="M36.28,34.25c9.88,2.31,16.35.81,19.88-.69A20.67,20.67,0,1,0,15.33,29a20.43,20.43,0,0,0,.4,4C21.37,31.38,26.23,31.91,36.28,34.25Zm9.28-18.73a2.33,2.33,0,1,1-2.33,2.33A2.33,2.33,0,0,1,45.56,15.52ZM36,20.18a2.89,2.89,0,1,1-2.88,2.89A2.89,2.89,0,0,1,36,20.18ZM25.73,15.52a2.33,2.33,0,1,1-2.33,2.33A2.33,2.33,0,0,1,25.73,15.52Z"/></svg>