<svg id="圖層_1" data-name="圖層 1" xmlns="http://www.w3.org/2000/svg" viewBox="0 0 209.67 45"><defs><style>.cls-1{font-size:30.22px;font-family:Thonburi, Thonburi;letter-spacing:0.01em;}.cls-1,.cls-2{fill:#fff;}</style></defs><title>工作區域 1 複本</title><text class="cls-1" transform="translate(42.88 34.41)">MAI-Bakery</text><path class="cls-2" d="M19,28.77c-7.91-1.85-11.62-2.28-15.94-1a17,17,0,0,0,32,.89C31.34,29.86,26,30.39,19,28.77Z"/><path class="cls-2" d="M19.49,26.82c8.12,1.9,13.44.66,16.34-.57a17.17,17.17,0,0,0,.43-3.75A17,17,0,1,0,2.58,25.8C7.22,24.46,11.22,24.89,19.49,26.82Zm7.62-15.4a1.92,1.92,0,1,1-1.91,1.91A1.91,1.91,0,0,1,27.11,11.42Zm-7.85,3.83a2.38,2.38,0,1,1-2.38,2.37A2.37,2.37,0,0,1,19.26,15.25Zm-8.45-3.83a1.92,1.92,0,1,1-1.92,1.91A1.9,1.9,0,0,1,10.81,11.42Z"/></svg>